<svg xmlns="http://www.w3.org/2000/svg" version="1.1" xmlns:xlink="http://www.w3.org/1999/xlink" xmlns:svgjs="http://svgjs.dev/svgjs" width="2000" height="2000"><svg xmlns="http://www.w3.org/2000/svg" xmlns:xlink="http://www.w3.org/1999/xlink" width="2000" zoomAndPan="magnify" viewBox="0 0 1500 1499.999933" height="2000" preserveAspectRatio="xMidYMid meet" version="1.0"><defs><g></g><clipPath id="SvgjsClipPath1017"><path d="M 53.78125 53.78125 L 1446.21875 53.78125 L 1446.21875 1446.21875 L 53.78125 1446.21875 Z M 53.78125 53.78125 " clip-rule="nonzero"></path></clipPath><clipPath id="SvgjsClipPath1016"><path d="M 750 53.78125 C 365.488281 53.78125 53.78125 365.488281 53.78125 750 C 53.78125 1134.511719 365.488281 1446.21875 750 1446.21875 C 1134.511719 1446.21875 1446.21875 1134.511719 1446.21875 750 C 1446.21875 365.488281 1134.511719 53.78125 750 53.78125 Z M 750 53.78125 " clip-rule="nonzero"></path></clipPath><clipPath id="SvgjsClipPath1015"><path d="M 466.660156 248.785156 L 1033.320312 248.785156 L 1033.320312 694.667969 L 466.660156 694.667969 Z M 466.660156 248.785156 " clip-rule="nonzero"></path></clipPath></defs><rect x="-150" width="1800" fill="#ffffff" y="-149.999993" height="1799.99992" fill-opacity="1"></rect><rect x="-150" width="1800" fill="#ffc433" y="-149.999993" height="1799.99992" fill-opacity="1"></rect><g clip-path="url(#c4c5d260b3)"><g clip-path="url(#b79583968d)"><path fill="#363430" d="M 53.78125 53.78125 L 1446.21875 53.78125 L 1446.21875 1446.21875 L 53.78125 1446.21875 Z M 53.78125 53.78125 " fill-opacity="1" fill-rule="nonzero"></path></g></g><g clip-path="url(#aef4f405c5)"><path fill="#ff6e29" d="M 883.285156 329.535156 C 893.617188 329.535156 893.617188 313.5 883.285156 313.5 C 872.972656 313.5 872.953125 329.535156 883.285156 329.535156 Z M 623.261719 327.058594 C 633.585938 327.058594 633.601562 311.015625 623.261719 311.015625 C 612.945312 311.015625 612.929688 327.058594 623.261719 327.058594 Z M 582.832031 388.019531 C 593.148438 388.019531 593.164062 371.976562 582.832031 371.976562 C 572.507812 371.976562 572.492188 388.019531 582.832031 388.019531 Z M 699.777344 355.410156 C 710.089844 355.410156 710.128906 339.375 699.777344 339.375 C 689.464844 339.375 689.445312 355.410156 699.777344 355.410156 Z M 727.148438 289.105469 C 737.480469 289.105469 737.480469 273.0625 727.148438 273.0625 C 716.835938 273.0625 716.816406 289.105469 727.148438 289.105469 Z M 865.25 391.132812 C 875.582031 391.132812 875.601562 375.089844 865.25 375.089844 C 854.9375 375.089844 854.917969 391.132812 865.25 391.132812 Z M 813.628906 306.523438 C 823.941406 306.523438 823.960938 290.480469 813.628906 290.480469 C 803.296875 290.480469 803.277344 306.523438 813.628906 306.523438 Z M 749.996094 264.804688 C 621.300781 264.804688 516.601562 329.300781 516.601562 408.582031 L 516.597656 415.472656 C 516.597656 423.472656 523.105469 429.980469 531.109375 429.980469 L 968.898438 429.980469 C 976.890625 429.980469 983.398438 423.472656 983.398438 415.472656 L 983.398438 408.582031 C 983.398438 329.300781 878.695312 264.804688 750.003906 264.804688 Z M 968.890625 446 L 531.101562 446 C 514.273438 446 500.582031 432.304688 500.582031 415.472656 L 500.582031 408.582031 C 500.582031 365.1875 527.027344 324.65625 575.035156 294.472656 C 621.890625 265.007812 684.019531 248.785156 749.996094 248.785156 C 815.972656 248.785156 878.105469 265.007812 924.960938 294.472656 C 972.976562 324.65625 999.40625 365.1875 999.40625 408.582031 L 999.40625 415.472656 C 999.40625 432.304688 985.710938 446 968.890625 446 Z M 1010.921875 473.648438 C 1011.980469 472.828125 1011.621094 473.148438 1010.441406 473.929688 C 1008.757812 475.03125 1007.054688 476.089844 1005.292969 477.070312 C 1000.046875 479.933594 994.320312 482.058594 988.394531 483.019531 C 979.585938 484.460938 970.613281 483.140625 962.585938 479.234375 C 953.492188 474.828125 946.425781 467.519531 937.035156 463.515625 C 917.492188 455.148438 893.84375 459.230469 877.925781 473.386719 C 877.746094 473.527344 877.484375 473.707031 877.144531 473.929688 C 875.460938 475.03125 873.761719 476.089844 872 477.070312 C 866.753906 479.933594 861.003906 482.058594 855.097656 483.019531 C 846.289062 484.460938 837.316406 483.140625 829.289062 479.234375 C 820.199219 474.828125 813.109375 467.519531 803.738281 463.515625 C 784.195312 455.148438 760.546875 459.230469 744.628906 473.386719 C 744.449219 473.527344 744.1875 473.707031 743.847656 473.929688 C 742.167969 475.03125 740.445312 476.089844 738.683594 477.070312 C 733.4375 479.933594 727.710938 482.058594 721.804688 483.019531 C 712.992188 484.460938 704.003906 483.140625 695.972656 479.234375 C 686.882812 474.828125 679.8125 467.519531 670.441406 463.515625 C 650.886719 455.148438 627.234375 459.230469 611.332031 473.386719 C 611.144531 473.527344 610.886719 473.707031 610.542969 473.929688 C 608.855469 475.03125 607.15625 476.089844 605.382812 477.070312 C 600.140625 479.933594 594.398438 482.058594 588.496094 483.019531 C 579.6875 484.460938 570.699219 483.140625 562.675781 479.234375 C 553.59375 474.828125 546.515625 467.519531 537.136719 463.515625 C 517.457031 455.105469 493.617188 459.269531 477.714844 473.648438 C 470.042969 480.597656 481.417969 491.890625 489.058594 484.980469 C 493.921875 480.597656 502.097656 476.890625 509.175781 475.628906 C 529.824219 471.90625 541.796875 487.90625 559.078125 495.132812 C 580.023438 503.882812 604.820312 498.957031 622.363281 484.980469 C 627.230469 480.597656 635.402344 476.890625 642.472656 475.628906 C 663.128906 471.90625 675.109375 487.90625 692.386719 495.132812 C 713.332031 503.882812 738.121094 498.957031 755.664062 484.980469 C 760.527344 480.597656 768.699219 476.890625 775.785156 475.628906 C 796.429688 471.90625 808.402344 487.90625 825.683594 495.132812 C 846.628906 503.882812 871.417969 498.957031 888.976562 484.980469 C 893.84375 480.597656 901.992188 476.890625 909.082031 475.628906 C 929.746094 471.90625 941.71875 487.90625 959 495.132812 C 979.925781 503.882812 1004.734375 498.957031 1022.273438 484.980469 C 1030.34375 478.554688 1018.929688 467.28125 1010.921875 473.648438 Z M 494.015625 528.652344 C 487.769531 528.652344 482.683594 533.738281 482.683594 539.984375 L 482.683594 550.417969 C 482.683594 556.664062 487.769531 561.75 494.015625 561.75 L 1005.976562 561.75 C 1012.222656 561.75 1017.308594 556.664062 1017.308594 550.417969 L 1017.308594 539.984375 C 1017.308594 533.738281 1012.222656 528.652344 1005.976562 528.652344 Z M 1005.976562 577.769531 L 494.015625 577.769531 C 478.9375 577.769531 466.664062 565.515625 466.664062 550.417969 L 466.664062 539.984375 C 466.664062 524.90625 478.9375 512.632812 494.015625 512.632812 L 1005.976562 512.632812 C 1021.050781 512.632812 1033.328125 524.90625 1033.328125 539.984375 L 1033.328125 550.417969 C 1033.328125 565.515625 1021.050781 577.769531 1005.976562 577.769531 Z M 531.101562 609.585938 C 523.097656 609.585938 516.589844 616.09375 516.589844 624.082031 L 516.589844 634.117188 C 516.589844 658.664062 536.566406 678.648438 561.128906 678.648438 L 938.847656 678.648438 C 963.417969 678.648438 983.378906 658.664062 983.378906 634.117188 L 983.378906 624.082031 C 983.378906 616.09375 976.871094 609.585938 968.882812 609.585938 Z M 938.855469 694.667969 L 561.136719 694.667969 C 527.746094 694.667969 500.582031 667.496094 500.582031 634.117188 L 500.582031 624.082031 C 500.582031 607.265625 514.273438 593.566406 531.109375 593.566406 L 968.898438 593.566406 C 985.71875 593.566406 999.414062 607.265625 999.414062 624.082031 L 999.414062 634.117188 C 999.414062 667.496094 972.261719 694.667969 938.863281 694.667969 " fill-opacity="1" fill-rule="nonzero"></path></g><g fill="#ffffff" fill-opacity="1"><g transform="translate(135.922495, 918.631909)"><g><path d="M 3.21875 -128.671875 L 93.84375 -128.671875 L 92.390625 -97.234375 L 66.75 -96.109375 L 63.203125 -2.734375 L 29.515625 0.484375 L 30.3125 -96.265625 L 3.390625 -97.5625 Z M 3.21875 -128.671875 "></path></g></g></g><g fill="#ffffff" fill-opacity="1"><g transform="translate(232.98371, 918.631909)"><g><path d="M 94.65625 -114.328125 L 97.078125 -0.328125 L 63.53125 0.328125 L 62.5625 -39.828125 L 36.921875 -38.21875 L 34.34375 -0.484375 L 3.21875 0.15625 L 8.21875 -118.203125 L 14.515625 -125.78125 L 84.8125 -128.84375 Z M 62.40625 -64.34375 L 61.59375 -96.421875 L 40.3125 -94.65625 L 38.703125 -65.953125 Z M 62.40625 -64.34375 "></path></g></g></g><g fill="#ffffff" fill-opacity="1"><g transform="translate(333.269556, 918.631909)"><g><path d="M 84.5 -63.859375 L 92.875 -54.828125 L 92.078125 -10.640625 L 80.46875 -1.609375 L 3.21875 0.328125 L 4.359375 -128.359375 L 77.71875 -124.640625 L 87.078125 -112.71875 L 89.015625 -69.5 Z M 58.046875 -76.265625 L 57.078125 -100.140625 L 35.3125 -103.515625 L 35.796875 -79.5 Z M 61.59375 -52.25 L 36.125 -56.4375 L 35.953125 -25.96875 L 60.46875 -29.828125 Z M 61.59375 -52.25 "></path></g></g></g><g fill="#ffffff" fill-opacity="1"><g transform="translate(429.363392, 918.631909)"><g><path d="M 94.65625 -114.328125 L 97.078125 -0.328125 L 63.53125 0.328125 L 62.5625 -39.828125 L 36.921875 -38.21875 L 34.34375 -0.484375 L 3.21875 0.15625 L 8.21875 -118.203125 L 14.515625 -125.78125 L 84.8125 -128.84375 Z M 62.40625 -64.34375 L 61.59375 -96.421875 L 40.3125 -94.65625 L 38.703125 -65.953125 Z M 62.40625 -64.34375 "></path></g></g></g><g fill="#ffffff" fill-opacity="1"><g transform="translate(529.64926, 918.631909)"><g><path d="M 86.59375 -74.5 L 94.5 -57.5625 L 93.359375 -9.671875 L 83.203125 -0.640625 L 9.359375 0 L 3.21875 -12.734375 L 6.28125 -44.015625 L 34.03125 -43.859375 L 36.28125 -29.515625 L 60.953125 -30 L 61.765625 -50.3125 L 11.9375 -55.953125 L 4.671875 -64.171875 L 5.484375 -118.203125 L 11.765625 -125.78125 L 70.953125 -128.84375 L 91.75 -122.875 L 93.203125 -92.390625 L 87.234375 -87.234375 L 64.65625 -86.109375 L 60.625 -99.171875 L 39.1875 -97.390625 L 37.40625 -78.84375 Z M 86.59375 -74.5 "></path></g></g></g><g fill="#ffffff" fill-opacity="1"><g transform="translate(627.355401, 918.631909)"><g><path d="M 62.71875 -39.828125 L 92.71875 -37.734375 L 93.53125 -11.9375 L 87.5625 -0.328125 L 14.828125 0.15625 L 4.03125 -5.640625 L 3.21875 -118.359375 L 8.0625 -129 L 85.46875 -128.03125 L 95.140625 -119.484375 L 92.875 -84.65625 L 62.40625 -84.65625 L 59.65625 -102.875 L 37.09375 -103.84375 L 38.53125 -23.859375 L 59.984375 -22.25 Z M 62.71875 -39.828125 "></path></g></g></g><g fill="#ffffff" fill-opacity="1"><g transform="translate(725.706446, 918.631909)"><g><path d="M 86.59375 -129 L 94.171875 -120.78125 L 93.046875 -11.765625 L 87.078125 -0.328125 L 14.671875 0.15625 L 4.03125 -6.125 L 3.21875 -120.453125 L 8.390625 -128.515625 Z M 37.09375 -101.90625 L 38.0625 -27.40625 L 59.828125 -25.96875 L 60.140625 -99.96875 Z M 37.09375 -101.90625 "></path></g></g></g><g fill="#ffffff" fill-opacity="1"><g transform="translate(823.090134, 918.631909)"><g><path d="M 109.8125 -128.1875 L 111.265625 -0.328125 L 77.40625 -1.125 L 74.8125 -74.015625 L 56.921875 -47.25 L 40.15625 -73.046875 L 37.578125 -1.609375 L 3.21875 -0.328125 L 5 -129.328125 L 39.015625 -128.84375 L 56.921875 -99.8125 L 74.171875 -128.671875 Z M 109.8125 -128.1875 "></path></g></g></g><g fill="#ffffff" fill-opacity="1"><g transform="translate(937.564273, 918.631909)"><g><path d="M 4.1875 -127.21875 L 39.1875 -128.359375 L 34.828125 -3.21875 L 3.21875 0.15625 Z M 4.1875 -127.21875 "></path></g></g></g><g fill="#ffffff" fill-opacity="1"><g transform="translate(979.968123, 918.631909)"><g><path d="M 79.5 -29.1875 L 81.265625 -0.328125 L 3.21875 -0.328125 L 3.21875 -129.328125 L 78.6875 -126.90625 L 77.71875 -97.390625 L 36.28125 -97.875 L 36.28125 -81.75 L 63.046875 -80.140625 L 63.046875 -52.078125 L 36.125 -53.703125 L 35.953125 -31.609375 Z M 79.5 -29.1875 "></path></g></g></g><g fill="#ffffff" fill-opacity="1"><g transform="translate(1064.453328, 918.631909)"><g><path d="M 64.828125 -126.75 L 100.9375 -128.359375 L 96.265625 -1.296875 L 67.40625 -0.15625 L 37.734375 -63.046875 L 35.46875 -3.21875 L 3.21875 0 L 4.1875 -128.1875 L 39.015625 -128.1875 L 64.5 -74.34375 Z M 64.828125 -126.75 "></path></g></g></g><g fill="#ffffff" fill-opacity="1"><g transform="translate(1168.608688, 918.631909)"><g><path d="M 82.5625 -122.546875 L 94.8125 -106.265625 L 92.078125 -16.453125 L 79.5 -1.609375 L 3.21875 0.15625 L 4.1875 -129 Z M 37.25 -97.71875 L 38.53125 -26.125 L 60.953125 -31.125 L 62.078125 -90.625 Z M 37.25 -97.71875 "></path></g></g></g><g fill="#ffffff" fill-opacity="1"><g transform="translate(1266.637325, 918.631909)"><g><path d="M 86.59375 -129 L 94.171875 -120.78125 L 93.046875 -11.765625 L 87.078125 -0.328125 L 14.671875 0.15625 L 4.03125 -6.125 L 3.21875 -120.453125 L 8.390625 -128.515625 Z M 37.09375 -101.90625 L 38.0625 -27.40625 L 59.828125 -25.96875 L 60.140625 -99.96875 Z M 37.09375 -101.90625 "></path></g></g></g><g fill="#ededeb" fill-opacity="1"><g transform="translate(591.265897, 1116.279564)"><g><path d="M 7.28125 0 L 7.28125 -80.984375 L 21.640625 -80.984375 C 27.335938 -80.984375 31.769531 -79.171875 34.9375 -75.546875 C 38.101562 -71.921875 39.6875 -65.40625 39.6875 -56 L 39.6875 -55.421875 C 39.6875 -43.691406 36.832031 -36.25 31.125 -33.09375 L 40.71875 0 L 31.234375 0 L 22.21875 -31 L 16.546875 -31 L 16.546875 0 Z M 30.546875 -54.25 L 30.546875 -57.734375 C 30.546875 -63.671875 29.753906 -67.796875 28.171875 -70.109375 C 26.585938 -72.421875 24.410156 -73.578125 21.640625 -73.578125 L 16.546875 -73.578125 L 16.546875 -38.296875 L 21.640625 -38.296875 C 27.578125 -38.296875 30.546875 -43.613281 30.546875 -54.25 Z M 30.546875 -54.25 "></path></g></g></g><g fill="#ededeb" fill-opacity="1"><g transform="translate(635.90902, 1116.279564)"><g><path d="M 16.546875 -36.671875 L 16.546875 -7.40625 L 36.671875 -7.40625 L 36.671875 0 L 7.28125 0 L 7.28125 -80.984375 L 36.328125 -80.984375 L 36.328125 -73.578125 L 16.546875 -73.578125 L 16.546875 -44.078125 L 34.59375 -44.078125 L 34.59375 -36.671875 Z M 16.546875 -36.671875 "></path></g></g></g><g fill="#ededeb" fill-opacity="1"><g transform="translate(677.429468, 1116.279564)"><g><path d="M 32.15625 -18.15625 C 32.15625 -24.332031 30.070312 -29.078125 25.90625 -32.390625 L 16.65625 -39.21875 C 9.71875 -44.15625 6.25 -51.441406 6.25 -61.078125 C 6.25 -69.097656 7.769531 -74.707031 10.8125 -77.90625 C 13.863281 -81.113281 18.03125 -82.71875 23.3125 -82.71875 C 28.59375 -82.71875 32.695312 -81.234375 35.625 -78.265625 C 38.5625 -75.296875 40.335938 -69.914062 40.953125 -62.125 L 32.15625 -60.15625 C 31.851562 -70.03125 28.984375 -74.96875 23.546875 -74.96875 C 18.109375 -74.96875 15.390625 -70.765625 15.390625 -62.359375 C 15.390625 -58.648438 15.789062 -55.640625 16.59375 -53.328125 C 17.40625 -51.015625 18.96875 -48.929688 21.28125 -47.078125 L 30.421875 -40.265625 C 32.585938 -38.722656 34.320312 -37.253906 35.625 -35.859375 C 36.9375 -34.472656 38.191406 -32.253906 39.390625 -29.203125 C 40.585938 -26.160156 41.1875 -22.554688 41.1875 -18.390625 C 41.1875 -10.984375 39.582031 -5.773438 36.375 -2.765625 C 33.175781 0.234375 28.835938 1.734375 23.359375 1.734375 C 17.890625 1.734375 13.613281 -0.0351562 10.53125 -3.578125 C 7.445312 -7.128906 5.554688 -13.457031 4.859375 -22.5625 L 13.53125 -24.0625 C 13.84375 -17.507812 14.785156 -12.84375 16.359375 -10.0625 C 17.941406 -7.289062 20.160156 -5.90625 23.015625 -5.90625 C 29.109375 -5.90625 32.15625 -9.988281 32.15625 -18.15625 Z M 32.15625 -18.15625 "></path></g></g></g><g fill="#ededeb" fill-opacity="1"><g transform="translate(723.460427, 1116.279564)"><g><path d="M 16.546875 -36.671875 L 16.546875 -7.40625 L 36.671875 -7.40625 L 36.671875 0 L 7.28125 0 L 7.28125 -80.984375 L 36.328125 -80.984375 L 36.328125 -73.578125 L 16.546875 -73.578125 L 16.546875 -44.078125 L 34.59375 -44.078125 L 34.59375 -36.671875 Z M 16.546875 -36.671875 "></path></g></g></g><g fill="#ededeb" fill-opacity="1"><g transform="translate(764.980875, 1116.279564)"><g><path d="M 16.3125 0 L 7.28125 0 L 7.28125 -80.984375 L 16.890625 -80.984375 L 35.75 -21.75 L 35.75 -80.984375 L 44.765625 -80.984375 L 44.765625 0 L 35.171875 0 L 16.3125 -59.109375 Z M 30.3125 -91.28125 C 29.226562 -91.28125 27.703125 -91.835938 25.734375 -92.953125 C 23.773438 -94.066406 22.332031 -94.625 21.40625 -94.625 C 19.78125 -94.625 18.046875 -93.429688 16.203125 -91.046875 L 13.53125 -95.4375 C 16.082031 -100.300781 18.898438 -102.734375 21.984375 -102.734375 C 23.054688 -102.734375 24.578125 -102.191406 26.546875 -101.109375 C 28.515625 -100.023438 29.960938 -99.484375 30.890625 -99.484375 C 32.585938 -99.484375 34.285156 -100.644531 35.984375 -102.96875 L 38.75 -98.5625 C 35.894531 -93.707031 33.082031 -91.28125 30.3125 -91.28125 Z M 30.3125 -91.28125 "></path></g></g></g><g fill="#ededeb" fill-opacity="1"><g transform="translate(817.025968, 1116.279564)"><g><path d="M 34.46875 0 L 30.890625 -21.0625 L 14.578125 -21.0625 L 11.109375 0 L 1.84375 0 L 16.65625 -80.984375 L 28.921875 -80.984375 L 43.734375 0 Z M 22.796875 -69.296875 L 15.84375 -28.453125 L 29.609375 -28.453125 Z M 22.796875 -69.296875 "></path></g></g></g><g fill="#ededeb" fill-opacity="1"><g transform="translate(862.594315, 1116.279564)"><g><path d="M 32.15625 -18.15625 C 32.15625 -24.332031 30.070312 -29.078125 25.90625 -32.390625 L 16.65625 -39.21875 C 9.71875 -44.15625 6.25 -51.441406 6.25 -61.078125 C 6.25 -69.097656 7.769531 -74.707031 10.8125 -77.90625 C 13.863281 -81.113281 18.03125 -82.71875 23.3125 -82.71875 C 28.59375 -82.71875 32.695312 -81.234375 35.625 -78.265625 C 38.5625 -75.296875 40.335938 -69.914062 40.953125 -62.125 L 32.15625 -60.15625 C 31.851562 -70.03125 28.984375 -74.96875 23.546875 -74.96875 C 18.109375 -74.96875 15.390625 -70.765625 15.390625 -62.359375 C 15.390625 -58.648438 15.789062 -55.640625 16.59375 -53.328125 C 17.40625 -51.015625 18.96875 -48.929688 21.28125 -47.078125 L 30.421875 -40.265625 C 32.585938 -38.722656 34.320312 -37.253906 35.625 -35.859375 C 36.9375 -34.472656 38.191406 -32.253906 39.390625 -29.203125 C 40.585938 -26.160156 41.1875 -22.554688 41.1875 -18.390625 C 41.1875 -10.984375 39.582031 -5.773438 36.375 -2.765625 C 33.175781 0.234375 28.835938 1.734375 23.359375 1.734375 C 17.890625 1.734375 13.613281 -0.0351562 10.53125 -3.578125 C 7.445312 -7.128906 5.554688 -13.457031 4.859375 -22.5625 L 13.53125 -24.0625 C 13.84375 -17.507812 14.785156 -12.84375 16.359375 -10.0625 C 17.941406 -7.289062 20.160156 -5.90625 23.015625 -5.90625 C 29.109375 -5.90625 32.15625 -9.988281 32.15625 -18.15625 Z M 32.15625 -18.15625 "></path></g></g></g></svg><style>@media (prefers-color-scheme: light) { :root { filter: none; } }
@media (prefers-color-scheme: dark) { :root { filter: none; } }
</style></svg>