<?xml version="1.0" standalone="no"?>
<svg xmlns="http://www.w3.org/2000/svg" viewBox="0 0 1500 1500">
  <path d="M750 264.8c-128.7 0-233.4 64.5-233.4 143.8v6.9c0 8 6.5 14.5 14.5 14.5h437.8c8 0 14.5-6.5 14.5-14.5v-6.9c0-79.3-104.7-143.8-233.4-143.8zm218.9 181.2H531.1c-16.8 0-30.5-13.7-30.5-30.5v-6.9c0-43.4 26.4-83.9 74.5-114.1 46.9-29.5 109-45.7 175-45.7s128.1 16.2 175 45.7c48 30.2 74.4 70.7 74.4 114.1v6.9c0 16.8-13.7 30.5-30.5 30.5zm42 27.6c1.1-.8.7-.5-.5.3-1.7 1.1-3.4 2.2-5.1 3.1-5.2 2.9-11 5-16.9 5.9-8.8 1.4-17.8.1-25.8-3.8-9.1-4.4-16.2-11.7-25.6-15.7-19.5-8.4-43.2-4.3-59.1 9.9-.2.1-.4.3-.8.5-1.7 1.1-3.4 2.2-5.1 3.1-5.2 2.9-11 5-16.9 5.9-8.8 1.4-17.8.1-25.8-3.8-9.1-4.4-16.2-11.7-25.6-15.7-19.5-8.4-43.2-4.3-59.1 9.9-.2.1-.4.3-.8.5-1.7 1.1-3.4 2.2-5.1 3.1-5.2 2.9-11 5-16.9 5.9-8.8 1.4-17.8.1-25.8-3.8-9.1-4.4-16.2-11.7-25.6-15.7-19.5-8.4-43.2-4.3-59.1 9.9-.2.1-.4.3-.8.5-1.7 1.1-3.4 2.2-5.1 3.1-5.2 2.9-11 5-16.9 5.9-8.8 1.4-17.8.1-25.8-3.8-9.1-4.4-16.2-11.7-25.6-15.7-19.7-8.4-43.5-4.2-59.4 10.1-7.7 7-3.7 18.2 3.9 11.3 4.9-4.4 13-8.1 20.1-9.4 20.6-3.7 32.6 12.3 49.9 19.5 20.9 8.8 45.7 3.8 63.3-10.2 4.9-4.4 13-8.1 20.1-9.4 20.6-3.7 32.6 12.3 49.9 19.5 20.9 8.8 45.7 3.8 63.3-10.2 4.9-4.4 13.1-8.1 20.1-9.4 20.7-3.7 32.6 12.3 49.9 19.5 20.9 8.8 45.7 3.8 63.3-10.2 8.1-6.4-3.3-17.7-11.4-11.3zM494 528.7c-6.2 0-11.3 5.1-11.3 11.3v10.4c0 6.2 5.1 11.3 11.3 11.3h512c6.2 0 11.3-5.1 11.3-11.3V540c0-6.2-5.1-11.3-11.3-11.3zm512 49.1H494c-15.1 0-27.4-12.3-27.4-27.4V540c0-15.1 12.3-27.4 27.4-27.4h512c15.1 0 27.4 12.3 27.4 27.4v10.4c0 15.1-12.3 27.4-27.4 27.4zm-474.9 31.8c-8 0-14.5 6.5-14.5 14.5v10c0 24.5 20 44.5 44.5 44.5h377.7c24.6 0 44.5-20 44.5-44.5v-10c0-8-6.5-14.5-14.5-14.5zm407.8 85.1H561.1c-33.4 0-60.6-27.2-60.6-60.6v-10c0-16.8 13.7-30.5 30.5-30.5h437.8c16.8 0 30.5 13.7 30.5 30.5v10c0 33.4-27.2 60.6-60.6 60.6z"/>
</svg> 